<svg width="24" height="24" viewBox="0 0 24 24" fill="none" xmlns="http://www.w3.org/2000/svg">
<path d="M12 7.99951C13.1 7.99951 14 7.09951 14 5.99951C14 4.89951 13.1 3.99951 12 3.99951C10.9 3.99951 10 4.89951 10 5.99951C10 7.09951 10.9 7.99951 12 7.99951ZM12 9.99951C10.9 9.99951 10 10.8995 10 11.9995C10 13.0995 10.9 13.9995 12 13.9995C13.1 13.9995 14 13.0995 14 11.9995C14 10.8995 13.1 9.99951 12 9.99951ZM12 15.9995C10.9 15.9995 10 16.8995 10 17.9995C10 19.0995 10.9 19.9995 12 19.9995C13.1 19.9995 14 19.0995 14 17.9995C14 16.8995 13.1 15.9995 12 15.9995Z" fill="#061854"/>
</svg>
