<svg width="36" height="36" viewBox="0 0 36 36" fill="none" xmlns="http://www.w3.org/2000/svg">
<path d="M28.8451 22.8899L25.0351 22.4549C24.5871 22.4023 24.133 22.4519 23.7069 22.6C23.2808 22.7481 22.8939 22.9908 22.5751 23.3099L19.8151 26.0699C15.5572 23.9038 12.0962 20.4428 9.93006 16.1849L12.7051 13.4099C13.3501 12.7649 13.6651 11.8649 13.5601 10.9499L13.1251 7.1699C13.0403 6.43803 12.6893 5.76293 12.1388 5.27329C11.5883 4.78364 10.8768 4.51369 10.1401 4.5149H7.54506C5.85006 4.5149 4.44006 5.9249 4.54506 7.6199C5.34006 20.4299 15.5851 30.6599 28.3801 31.4549C30.0751 31.5599 31.4851 30.1499 31.4851 28.4549V25.8599C31.5001 24.3449 30.3601 23.0699 28.8451 22.8899Z" fill="#061854"/>
</svg>
