<svg width="36" height="36" viewBox="0 0 36 36" fill="none" xmlns="http://www.w3.org/2000/svg">
<path d="M15.1725 32.7165C16.0815 33.4665 17.0295 34.152 18 34.821C18.9726 34.1609 19.916 33.4587 20.8275 32.7165C22.347 31.4688 23.777 30.116 25.107 28.668C28.173 25.3155 31.5 20.4555 31.5 15C31.5 13.2272 31.1508 11.4717 30.4724 9.83377C29.7939 8.19588 28.7995 6.70765 27.5459 5.45406C26.2923 4.20047 24.8041 3.20606 23.1662 2.52763C21.5283 1.84919 19.7728 1.5 18 1.5C16.2272 1.5 14.4717 1.84919 12.8338 2.52763C11.1959 3.20606 9.70765 4.20047 8.45406 5.45406C7.20047 6.70765 6.20606 8.19588 5.52763 9.83377C4.84919 11.4717 4.5 13.2272 4.5 15C4.5 20.4555 7.827 25.314 10.893 28.668C12.2229 30.1165 13.6529 31.4683 15.1725 32.7165ZM18 19.875C16.7071 19.875 15.4671 19.3614 14.5529 18.4471C13.6386 17.5329 13.125 16.2929 13.125 15C13.125 13.7071 13.6386 12.4671 14.5529 11.5529C15.4671 10.6386 16.7071 10.125 18 10.125C19.2929 10.125 20.5329 10.6386 21.4471 11.5529C22.3614 12.4671 22.875 13.7071 22.875 15C22.875 16.2929 22.3614 17.5329 21.4471 18.4471C20.5329 19.3614 19.2929 19.875 18 19.875Z" fill="#061854"/>
</svg>
