<svg width="16" height="16" viewBox="0 0 16 16" fill="none" xmlns="http://www.w3.org/2000/svg">
<g clip-path="url(#clip0_2047_71)">
<path opacity="0.65" d="M11.5201 5.12063H10.8801V3.84062C10.8801 2.07422 9.44646 0.640625 7.68006 0.640625C5.91366 0.640625 4.48006 2.07422 4.48006 3.84062V5.12063H3.84006C3.13606 5.12063 2.56006 5.69662 2.56006 6.40062V12.8006C2.56006 13.5046 3.13606 14.0806 3.84006 14.0806H11.5201C12.2241 14.0806 12.8001 13.5046 12.8001 12.8006V6.40062C12.8001 5.69662 12.2241 5.12063 11.5201 5.12063ZM7.68006 10.8806C6.97606 10.8806 6.40006 10.3046 6.40006 9.60063C6.40006 8.89662 6.97606 8.32062 7.68006 8.32062C8.38406 8.32062 8.96006 8.89662 8.96006 9.60063C8.96006 10.3046 8.38406 10.8806 7.68006 10.8806ZM9.66406 5.12063H5.69606V3.84062C5.69606 2.74622 6.58566 1.85663 7.68006 1.85663C8.77446 1.85663 9.66406 2.74622 9.66406 3.84062V5.12063Z" fill="#061854"/>
</g>
<defs>
<clipPath id="clip0_2047_71">
<rect width="15.36" height="15.36" fill="white"/>
</clipPath>
</defs>
</svg>
